<svg width="398" height="343" viewBox="0 0 398 343" fill="none" xmlns="http://www.w3.org/2000/svg">
<path d="M226.3 342.4C299.643 342.4 359.1 340.609 359.1 338.4C359.1 336.191 299.643 334.4 226.3 334.4C152.957 334.4 93.5 336.191 93.5 338.4C93.5 340.609 152.957 342.4 226.3 342.4Z" fill="url(#paint0_radial_227_952)"/>
<path d="M382.3 279C382.3 279 385.9 285.3 323.4 278.5H189.9L125 279.2C125 279.2 16.6 286.9 5.4 296.2L47.4 257L0.5 236.1C0.5 236.1 31.3 226.8 55.5 227.5C79.6 228.2 177.9 230.3 177.9 230.3L250.5 227.5L322.2 234.3L373 247.1L378.8 262L381.1 270.8L382.3 279Z" fill="#C99616"/>
<path d="M397.8 171.5C397.8 178.1 381.9 183.8 381.2 190.2C380.4 196.8 394.5 206 392.9 212.3C391.3 218.7 374.6 220.4 372.3 226.5C370 232.7 381.4 245 378.3 250.8C375.2 256.6 358.6 254.2 354.9 259.6C351.2 265 359.3 279.7 354.9 284.6C350.5 289.5 334.9 283.2 330 287.6C325.1 292 329.5 308.2 324.1 311.9C318.7 315.6 305.1 305.8 299.2 308.8C293.4 311.8 293.8 328.7 287.6 331C281.5 333.3 270.6 320.5 264.2 322.1C257.9 323.7 254.2 340.1 247.6 340.9C241.2 341.7 233.7 326.6 227 326.6C220.3 326.6 213 341.7 206.5 341C199.9 340.2 196.2 323.8 189.9 322.2C183.5 320.6 172.6 333.5 166.5 331.1C160.3 328.8 160.7 311.9 154.9 308.9C149.1 305.8 135.4 315.7 130 312C124.6 308.3 129 292 124.1 287.7C119.2 283.3 103.6 289.7 99.2 284.7C94.8 279.8 103 265.1 99.2 259.7C95.5 254.3 78.8 256.7 75.8 250.9C72.8 245.1 84.2 232.8 81.8 226.6C79.5 220.5 62.7 218.8 61.2 212.4C59.6 206.1 73.7 196.8 72.9 190.3C72.1 183.9 56.3 178.2 56.3 171.6C56.3 165 72.2 159.3 72.9 152.9C73.7 146.3 59.6 137.1 61.2 130.8C62.8 124.4 79.5 122.7 81.8 116.6C84.1 110.4 72.7 98.1001 75.8 92.3001C78.9 86.5001 95.5 88.9001 99.2 83.5001C102.9 78.1001 94.8 63.4001 99.2 58.5001C103.6 53.6001 119.2 59.9001 124.1 55.5001C129 51.1001 124.6 34.9001 130 31.2001C135.4 27.5001 149 37.3001 154.9 34.3001C160.7 31.3001 160.3 14.4001 166.5 12.1001C172.6 9.8001 183.5 22.6001 189.9 21.0001C196.2 19.4001 199.9 3.00013 206.5 2.20013C212.9 1.40013 220.4 16.5001 227.1 16.5001C233.8 16.5001 241.2 1.40013 247.7 2.20013C254.3 3.00013 258 19.4001 264.3 21.0001C270.7 22.6001 281.6 9.7001 287.7 12.1001C293.9 14.4001 293.5 31.3001 299.3 34.3001C305.1 37.4001 318.8 27.5001 324.2 31.2001C329.6 34.9001 325.2 51.2001 330.1 55.5001C335 59.9001 350.6 53.5001 355 58.5001C359.4 63.4001 351.2 78.1001 355 83.5001C358.7 88.9001 375.4 86.5001 378.4 92.3001C381.4 98.1001 370 110.4 372.4 116.6C374.7 122.7 391.5 124.4 393 130.8C394.6 137.1 380.5 146.4 381.3 152.9C382 159.2 397.8 164.8 397.8 171.5Z" fill="#1D1D1B"/>
<path d="M396.6 150.7C397.4 157.3 382.4 164.8 382.4 171.3C382.4 177.9 397.5 185.4 396.7 191.8C395.9 198.4 379.5 202.1 377.9 208.4C376.3 214.8 389.2 225.7 386.9 231.8C384.6 238 367.7 237.6 364.7 243.4C361.6 249.2 371.5 262.9 367.8 268.3C364.1 273.7 347.8 269.3 343.5 274.3C339.2 279.2 345.5 294.8 340.6 299.2C335.7 303.6 321 295.4 315.6 299.2C310.2 302.9 312.7 319.6 306.8 322.7C301 325.7 288.7 314.3 282.5 316.7C276.4 319 274.8 335.8 268.3 337.4C262 339 252.7 324.9 246.1 325.7C239.5 326.5 233.9 342.4 227.4 342.4C220.8 342.4 215.1 326.6 208.6 325.8C202 325 192.8 339.1 186.5 337.5C180.1 335.9 178.4 319.2 172.3 316.9C166.1 314.6 153.8 326 148 323C142.2 319.9 144.6 303.3 139.2 299.6C133.8 295.9 119.1 304 114.2 299.7C109.3 295.4 115.6 279.7 111.2 274.8C106.8 269.9 90.6 274.3 86.9 268.9C83.2 263.5 93 249.9 89.9 244C86.9 238.2 70 238.6 67.7 232.4C65.4 226.3 78.2 215.4 76.6 209C75 202.7 58.6 199 57.8 192.4C57 185.8 72 178.3 72 171.8C72 165.2 56.9 157.7 57.7 151.3C58.5 144.7 74.9 141 76.5 134.7C78.1 128.3 65.2 117.4 67.5 111.3C69.8 105.1 86.7 105.5 89.7 99.7001C92.8 93.9001 82.9 80.2 86.6 74.8C90.3 69.4 106.6 73.8 110.9 68.8C115.2 63.9 108.9 48.3001 113.8 43.9001C118.7 39.5001 133.4 47.7001 138.8 43.9001C144.2 40.2001 141.7 23.5001 147.6 20.4001C153.4 17.4001 165.7 28.8001 171.9 26.4001C178 24.1001 179.6 7.30005 186.1 5.80005C192.4 4.20005 201.7 18.3001 208.3 17.5001C214.9 16.7001 220.5 0.800049 227 0.800049C233.6 0.800049 239.3 16.6001 245.8 17.4001C252.4 18.2001 261.6 4.10007 267.9 5.70007C274.3 7.30007 276 24 282.1 26.3C288.3 28.6 300.6 17.2001 306.4 20.2001C312.2 23.3001 309.8 39.9 315.2 43.6C320.6 47.3 335.3 39.2001 340.2 43.5001C345.1 47.8001 338.8 63.5001 343.2 68.4001C347.6 73.3001 363.8 68.9 367.5 74.3C371.2 79.7 361.4 93.3001 364.5 99.2001C367.5 105 384.4 104.6 386.7 110.8C389 116.9 376.2 127.8 377.8 134.2C379.3 140.4 395.7 144.1 396.6 150.7Z" fill="url(#paint1_radial_227_952)"/>
<path d="M388.1 218C388.1 218 389.6 220.6 382.3 279C382.3 279 381.2 271.2 356 267C356 267 337.7 263.1 323.6 262.6C323.6 262.6 302.8 262.2 289.2 263.1C289.2 263.1 277.7 264.2 260.2 265.8C260.2 265.8 252 266.4 233.7 268.5C233.7 268.5 218.7 270.6 199.7 271.4C199.7 271.4 191.3 272 163.9 273.2C163.9 273.2 129.6 273.9 121.1 273.5C121.1 273.5 26 273.3 2.5 264.3L47 240.6C47 240.6 7.1 206.4 5 203.6C5 203.6 24.5 212.9 99.6 213.5C99.6 213.5 127.4 215.4 175 213.5C175 213.5 229.4 211.3 261.3 206.7C261.3 206.7 304 203 322.8 203.6C322.8 203.6 365.6 202.7 388.1 218Z" fill="url(#paint2_linear_227_952)"/>
<path d="M387.9 217.3C387.9 217.3 389.4 219.9 382.1 279.1C382.1 279.1 381 271.2 355.8 266.9C355.8 266.9 337.5 262.9 323.4 262.4C323.4 262.4 302.6 262 289 262.9C289 262.9 277.5 264.1 259.9 265.6C259.9 265.6 251.7 266.2 233.4 268.3C233.4 268.3 218.4 270.4 199.4 271.3C199.4 271.3 191 271.9 163.5 273.1C163.5 273.1 129.2 273.8 120.7 273.4C120.7 273.4 25.5 273.2 2 264.1L46.6 240.1C46.6 240.1 6.7 205.4 4.5 202.6C4.5 202.6 24 212 99.2 212.6C99.2 212.6 127 214.5 174.7 212.6C174.7 212.6 229.2 210.4 261 205.7C261 205.7 303.7 201.9 322.6 202.6C322.5 202.7 365.3 201.8 387.9 217.3Z" fill="url(#paint3_linear_227_952)"/>
<mask id="mask0_227_952" style="mask-type:luminance" maskUnits="userSpaceOnUse" x="2" y="202" width="387" height="78">
<path d="M387.9 217.3C387.9 217.3 389.4 219.9 382.1 279.1C382.1 279.1 381 271.2 355.8 266.9C355.8 266.9 337.5 262.9 323.4 262.4C323.4 262.4 302.6 262 289 262.9C289 262.9 277.5 264.1 259.9 265.6C259.9 265.6 251.7 266.2 233.4 268.3C233.4 268.3 218.4 270.4 199.4 271.3C199.4 271.3 191 271.9 163.5 273.1C163.5 273.1 129.2 273.8 120.7 273.4C120.7 273.4 25.5 273.2 2 264.1L46.6 240.1C46.6 240.1 6.7 205.4 4.5 202.6C4.5 202.6 24 212 99.2 212.6C99.2 212.6 127 214.5 174.7 212.6C174.7 212.6 229.2 210.4 261 205.7C261 205.7 303.7 201.9 322.6 202.6C322.5 202.7 365.3 201.8 387.9 217.3Z" fill="white"/>
</mask>
<g mask="url(#mask0_227_952)">
<path d="M296.8 327.5L289.6 -3.69995H303.9L296.8 327.5Z" fill="#D5B048"/>
<path d="M296.8 327.5L261.2 -1.79987L275.4 -3.09985L296.8 327.5Z" fill="#D5B048"/>
<path d="M296.8 327.5L232.9 2.6001L247 0.100098L296.8 327.5Z" fill="#D5B048"/>
<path d="M296.8 327.5L205.2 9.40009L219 5.70007L296.8 327.5Z" fill="#D5B048"/>
<path d="M296.8 327.5L178.2 18.7001L191.6 13.8L296.8 327.5Z" fill="#D5B048"/>
<path d="M296.8 327.5L152 30.4001L165 24.3L296.8 327.5Z" fill="#D5B048"/>
<path d="M296.8 327.5L127 44.3L139.4 37L296.8 327.5Z" fill="#D5B048"/>
<path d="M296.8 327.5L103.3 60.3L115 52L296.8 327.5Z" fill="#D5B048"/>
<path d="M296.8 327.5L81 78.4001L91.9 69.1001L296.8 327.5Z" fill="#D5B048"/>
<path d="M296.8 327.5L60.4 98.4001L70.5 88.2001L296.8 327.5Z" fill="#D5B048"/>
<path d="M296.8 327.5L41.5 120.2L50.7 109.1L296.8 327.5Z" fill="#D5B048"/>
<path d="M296.8 327.5L24.7 143.5L32.9 131.6L296.8 327.5Z" fill="#D5B048"/>
<path d="M296.8 327.5L9.8 168.2L17 155.6L296.8 327.5Z" fill="#D5B048"/>
<path d="M296.8 327.5L-2.8 194.1L3.3 181L296.8 327.5Z" fill="#D5B048"/>
<path d="M296.8 327.5L-13.1 221L-8.2 207.4L296.8 327.5Z" fill="#D5B048"/>
<path d="M296.8 327.5L-21.1 248.8L-17.4 234.8L296.8 327.5Z" fill="#D5B048"/>
<path d="M296.8 327.5L-26.7 277.1L-24.2 262.9L296.8 327.5Z" fill="#D5B048"/>
<path d="M296.8 327.5L617.8 262.9L620.3 277.1L296.8 327.5Z" fill="#D5B048"/>
<path d="M296.8 327.5L611 234.8L614.7 248.8L296.8 327.5Z" fill="#D5B048"/>
<path d="M296.8 327.5L601.8 207.4L606.7 221L296.8 327.5Z" fill="#D5B048"/>
<path d="M296.8 327.5L590.3 181L596.4 194.1L296.8 327.5Z" fill="#D5B048"/>
<path d="M296.8 327.5L576.6 155.6L583.7 168.2L296.8 327.5Z" fill="#D5B048"/>
<path d="M296.8 327.5L560.7 131.6L568.9 143.5L296.8 327.5Z" fill="#D5B048"/>
<path d="M296.8 327.5L542.9 109.1L552 120.1L296.8 327.5Z" fill="#D5B048"/>
<path d="M296.8 327.5L523.1 88.2001L533.2 98.4001L296.8 327.5Z" fill="#D5B048"/>
<path d="M296.8 327.5L501.6 69.1001L512.6 78.4001L296.8 327.5Z" fill="#D5B048"/>
<path d="M296.8 327.5L478.6 52L490.3 60.3L296.8 327.5Z" fill="#D5B048"/>
<path d="M296.8 327.5L454.2 37L466.6 44.3L296.8 327.5Z" fill="#D5B048"/>
<path d="M296.8 327.5L428.6 24.3L441.6 30.4001L296.8 327.5Z" fill="#D5B048"/>
<path d="M296.8 327.5L402 13.8L415.4 18.7001L296.8 327.5Z" fill="#D5B048"/>
<path d="M296.8 327.5L374.6 5.70007L388.4 9.40009L296.8 327.5Z" fill="#D5B048"/>
<path d="M296.8 327.5L346.6 0.100098L360.7 2.6001L296.8 327.5Z" fill="#D5B048"/>
<path d="M296.8 327.5L318.2 -3.09985L332.4 -1.79987L296.8 327.5Z" fill="#D5B048"/>
</g>
<path d="M191.488 85.4509V57.2353H201.352C203.318 57.2353 204.939 57.5752 206.216 58.2548C207.492 58.9253 208.443 59.83 209.068 60.9689C209.692 62.0987 210.005 63.3524 210.005 64.7301C210.005 65.9425 209.789 66.9436 209.357 67.7335C208.934 68.5234 208.374 69.148 207.676 69.6072C206.987 70.0664 206.239 70.4063 205.431 70.6267V70.9023C206.294 70.9574 207.162 71.2605 208.034 71.8116C208.907 72.3626 209.637 73.1525 210.225 74.1812C210.813 75.2099 211.107 76.4682 211.107 77.9562C211.107 79.3706 210.785 80.6427 210.142 81.7724C209.499 82.9022 208.484 83.7977 207.098 84.459C205.711 85.1203 203.906 85.4509 201.683 85.4509H191.488ZM194.905 82.42H201.683C203.915 82.42 205.499 81.9883 206.436 81.1249C207.382 80.2524 207.855 79.1961 207.855 77.9562C207.855 77.0009 207.612 76.1192 207.125 75.3109C206.638 74.4935 205.945 73.8414 205.045 73.3546C204.145 72.8586 203.079 72.6106 201.848 72.6106H194.905V82.42ZM194.905 69.6348H201.242C202.271 69.6348 203.199 69.4327 204.025 69.0286C204.861 68.6244 205.522 68.055 206.009 67.3202C206.505 66.5854 206.753 65.7221 206.753 64.7301C206.753 63.4902 206.321 62.4385 205.458 61.5751C204.595 60.7026 203.226 60.2663 201.352 60.2663H194.905V69.6348ZM216.721 85.4509V57.2353H233.749V60.2663H220.138V69.8001H232.868V72.8311H220.138V82.42H233.97V85.4509H216.721ZM255.338 64.2892C255.173 62.8931 254.502 61.8093 253.327 61.0378C252.151 60.2663 250.709 59.8805 249.001 59.8805C247.752 59.8805 246.659 60.0826 245.722 60.4867C244.794 60.8909 244.069 61.4465 243.545 62.1538C243.031 62.861 242.773 63.6647 242.773 64.5648C242.773 65.3179 242.953 65.9654 243.311 66.5073C243.678 67.0401 244.147 67.4855 244.716 67.8437C245.286 68.1928 245.883 68.4821 246.507 68.7117C247.132 68.9321 247.706 69.1112 248.229 69.249L251.095 70.0205C251.83 70.2134 252.647 70.4798 253.547 70.8196C254.456 71.1594 255.324 71.6233 256.151 72.2111C256.987 72.7897 257.676 73.5337 258.218 74.443C258.76 75.3523 259.031 76.4682 259.031 77.7908C259.031 79.3155 258.631 80.6932 257.832 81.924C257.042 83.1547 255.885 84.1329 254.36 84.8585C252.845 85.5841 251.003 85.9469 248.835 85.9469C246.815 85.9469 245.065 85.6208 243.586 84.9687C242.117 84.3166 240.959 83.4073 240.114 82.2409C239.279 81.0744 238.806 79.7196 238.695 78.1766H242.222C242.314 79.242 242.672 80.1238 243.297 80.8218C243.931 81.5107 244.73 82.025 245.694 82.3648C246.668 82.6955 247.715 82.8608 248.835 82.8608C250.14 82.8608 251.311 82.6496 252.349 82.2271C253.386 81.7954 254.209 81.1984 254.815 80.436C255.421 79.6645 255.724 78.7644 255.724 77.7357C255.724 76.7989 255.462 76.0365 254.939 75.4487C254.415 74.8609 253.726 74.3833 252.872 74.0159C252.018 73.6485 251.095 73.327 250.103 73.0515L246.631 72.0595C244.427 71.4258 242.682 70.5211 241.396 69.3454C240.11 68.1698 239.467 66.6313 239.467 64.7301C239.467 63.1503 239.894 61.7726 240.748 60.597C241.612 59.4121 242.769 58.4936 244.22 57.8415C245.68 57.1802 247.311 56.8496 249.111 56.8496C250.93 56.8496 252.546 57.1756 253.961 57.8277C255.375 58.4707 256.496 59.3524 257.322 60.473C258.158 61.5935 258.599 62.8656 258.645 64.2892H255.338ZM263.105 60.2663V57.2353H284.267V60.2663H275.394V85.4509H271.978V60.2663H263.105Z" fill="black"/>
<path d="M190.9 60.8002C192.3 60.5002 194.6 60.2002 196.9 60.2002C200.2 60.2002 202.3 60.8002 203.9 62.1002C205.2 63.1002 206 64.7002 206 66.8002C206 69.4002 204.4 71.7002 201.7 72.7002V72.8002C204.1 73.4002 207 75.5002 207 79.5002C207 81.8002 206.1 83.6002 204.8 84.9002C203 86.6002 200.1 87.4002 196 87.4002C193.7 87.4002 192 87.2002 190.9 87.1002V60.8002ZM194.2 71.8002H197.2C200.7 71.8002 202.7 69.9002 202.7 67.3002C202.7 64.2002 200.4 62.9002 197.1 62.9002C195.6 62.9002 194.7 63.0002 194.2 63.1002V71.8002ZM194.2 84.6002C194.8 84.7002 195.8 84.8002 197 84.8002C200.4 84.8002 203.5 83.5002 203.5 79.6002C203.5 75.9002 200.5 74.4002 196.9 74.4002H194.2V84.6002Z" fill="url(#paint4_linear_227_952)"/>
<path d="M224.7 74.7001H214.8V84.4001H225.8V87.3001H211.5V60.5001H225.3V63.4001H214.8V71.9001H224.7V74.7001Z" fill="url(#paint5_linear_227_952)"/>
<path d="M229.6 83.0001C231.1 84.0001 233.2 84.8001 235.5 84.8001C238.9 84.8001 240.8 82.9001 240.8 80.2001C240.8 77.7001 239.4 76.3001 236 74.9001C231.8 73.3001 229.3 71.1001 229.3 67.3001C229.3 63.1001 232.6 60.0001 237.5 60.0001C240.1 60.0001 242 60.6001 243.1 61.3001L242.2 64.1001C241.4 63.6001 239.7 62.8001 237.4 62.8001C233.9 62.8001 232.6 65.0001 232.6 66.8001C232.6 69.3001 234.2 70.5001 237.7 72.0001C242 73.8001 244.2 75.9001 244.2 79.9001C244.2 84.0001 241.3 87.6001 235.3 87.6001C232.8 87.6001 230.2 86.8001 228.8 85.9001L229.6 83.0001Z" fill="url(#paint6_linear_227_952)"/>
<path d="M253.6 63.4001H245.8V60.5001H264.7V63.4001H256.9V87.3001H253.6V63.4001Z" fill="url(#paint7_linear_227_952)"/>
<path d="M149.668 167.722V174.371H138.88C136.279 174.371 134.447 174.168 133.384 173.761C132.321 173.376 131.597 172.788 131.212 171.996C130.851 171.205 130.67 169.78 130.67 167.722C127.435 167.631 124.653 166.783 122.324 165.177C119.994 163.571 118.456 161.536 117.71 159.07C116.963 156.582 116.59 152.873 116.59 147.943V130.945C116.59 127.213 116.805 124.375 117.235 122.43C117.687 120.462 118.603 118.619 119.983 116.9C121.362 115.158 123.138 113.846 125.309 112.964C127.481 112.082 129.889 111.641 132.536 111.641C135.725 111.641 138.563 112.184 141.051 113.27C143.562 114.355 145.428 115.735 146.649 117.409C147.893 119.082 148.696 120.824 149.058 122.633C149.442 124.42 149.635 127.089 149.635 130.64V148.485C149.635 153.371 149.397 156.684 148.922 158.426C148.447 160.167 147.531 161.558 146.174 162.599C144.84 163.617 143.053 164.397 140.814 164.94C140.881 166.161 141.13 166.93 141.56 167.247C142.012 167.563 143.064 167.722 144.715 167.722H149.668ZM135.351 126.908C135.351 124.352 135.204 122.724 134.91 122.023C134.639 121.299 134.062 120.937 133.18 120.937C132.434 120.937 131.857 121.231 131.45 121.819C131.065 122.385 130.873 124.081 130.873 126.908V152.557C130.873 155.746 130.998 157.713 131.246 158.46C131.518 159.206 132.128 159.579 133.078 159.579C134.051 159.579 134.673 159.15 134.944 158.29C135.216 157.431 135.351 155.384 135.351 152.149V126.908ZM187.463 112.795V149.503C187.463 153.665 187.327 156.594 187.055 158.29C186.784 159.964 185.981 161.694 184.647 163.481C183.312 165.245 181.548 166.591 179.354 167.518C177.183 168.423 174.616 168.875 171.653 168.875C168.373 168.875 165.478 168.332 162.968 167.247C160.457 166.161 158.58 164.747 157.336 163.006C156.092 161.264 155.357 159.432 155.131 157.51C154.904 155.565 154.791 151.493 154.791 145.296V112.795H169.074V153.981C169.074 156.379 169.199 157.917 169.448 158.595C169.719 159.251 170.251 159.579 171.042 159.579C171.947 159.579 172.524 159.217 172.772 158.494C173.044 157.747 173.18 156.006 173.18 153.269V112.795H187.463ZM217.657 112.795L225.833 167.722H211.211L210.499 157.849H205.376L204.528 167.722H189.736L196.996 112.795H217.657ZM210.092 148.112C209.368 141.892 208.644 134.214 207.92 125.076C206.473 135.571 205.568 143.249 205.206 148.112H210.092ZM242.559 112.795V156.729H251.244V167.722H228.276V112.795H242.559ZM269.022 112.795V167.722H254.739V112.795H269.022ZM303.525 112.795V123.787H295.044V167.722H280.761V123.787H272.313V112.795H303.525ZM338.978 112.795L328.563 147.841V167.722H315.332V147.841L305.289 112.795H318.419C320.477 123.493 321.631 130.697 321.879 134.406C322.671 128.548 323.994 121.344 325.849 112.795H338.978Z" fill="black"/>
<path d="M147.6 171.5V178.6H137.4C134.9 178.6 133.2 178.4 132.2 178C131.2 177.6 130.5 176.9 130.2 176.1C129.8 175.3 129.7 173.8 129.7 171.6C126.7 171.5 124 170.6 121.8 168.9C119.6 167.2 118.2 165 117.5 162.4C116.8 159.8 116.4 155.8 116.4 150.6V132.6C116.4 128.6 116.6 125.6 117 123.5C117.4 121.4 118.3 119.5 119.6 117.6C120.9 115.8 122.6 114.4 124.6 113.4C126.6 112.4 128.9 112 131.4 112C134.4 112 137.1 112.6 139.4 113.7C141.8 114.9 143.5 116.3 144.7 118.1C145.9 119.9 146.6 121.7 147 123.6C147.4 125.5 147.5 128.3 147.5 132.1V151C147.5 156.2 147.3 159.7 146.8 161.5C146.4 163.3 145.5 164.8 144.2 165.9C142.9 167 141.2 167.8 139.1 168.4C139.2 169.7 139.4 170.5 139.8 170.9C140.2 171.2 141.2 171.4 142.8 171.4H147.6V171.5ZM134.1 128.1C134.1 125.4 134 123.7 133.7 122.9C133.4 122.1 132.9 121.8 132.1 121.8C131.4 121.8 130.9 122.1 130.5 122.7C130.1 123.3 129.9 125.1 129.9 128.1V155.3C129.9 158.7 130 160.8 130.3 161.6C130.5 162.4 131.1 162.8 132 162.8C132.9 162.8 133.5 162.3 133.8 161.4C134.1 160.5 134.2 158.3 134.2 154.9V128.1H134.1Z" fill="url(#paint8_linear_227_952)"/>
<path d="M183.2 113.2V152.2C183.2 156.6 183.1 159.7 182.8 161.5C182.5 163.3 181.8 165.1 180.5 167C179.2 168.9 177.6 170.3 175.5 171.3C173.4 172.3 171 172.8 168.2 172.8C165.1 172.8 162.4 172.2 160 171.1C157.6 169.9 155.9 168.4 154.7 166.6C153.5 164.8 152.8 162.8 152.6 160.7C152.4 158.6 152.3 154.3 152.3 147.8V113.3H165.8V157C165.8 159.5 165.9 161.2 166.2 161.9C166.4 162.6 166.9 163 167.7 163C168.6 163 169.1 162.6 169.3 161.8C169.5 161 169.7 159.2 169.7 156.3V113.3H183.2V113.2Z" fill="url(#paint9_linear_227_952)"/>
<path d="M211.7 113.2L219.4 171.5H205.6L204.9 161H200.1L199.3 171.5H185.4L192.3 113.2H211.7ZM204.5 150.6C203.8 144 203.1 135.8 202.5 126.1C201.1 137.3 200.3 145.4 199.9 150.6H204.5Z" fill="url(#paint10_linear_227_952)"/>
<path d="M235.1 113.2V159.8H243.3V171.5H221.7V113.2H235.1Z" fill="url(#paint11_linear_227_952)"/>
<path d="M260 113.2V171.5H246.5V113.2H260Z" fill="url(#paint12_linear_227_952)"/>
<path d="M292.5 113.2V124.9H284.5V171.5H271V124.9H263V113.2H292.5Z" fill="url(#paint13_linear_227_952)"/>
<path d="M324.3 113.2L314.5 150.4V171.5H302V150.4L292.5 113.2H304.9C306.8 124.6 307.9 132.2 308.2 136.2C308.9 130 310.2 122.3 311.9 113.2H324.3Z" fill="url(#paint14_linear_227_952)"/>
<path d="M235.6 289.1L238.3 296.5L246.2 296.8L240 301.6L242.2 309.2L235.6 304.8L229.1 309.2L231.3 301.6L225 296.8L232.9 296.5L235.6 289.1Z" fill="#E8C431"/>
<path d="M204.8 284.4L207.5 291.8L215.4 292.1L209.1 296.9L211.3 304.5L204.8 300.1L198.2 304.5L200.4 296.9L194.2 292.1L202.1 291.8L204.8 284.4Z" fill="#E8C431"/>
<path d="M267.1 284.4L269.8 291.8L277.7 292.1L271.5 296.9L273.7 304.5L267.1 300.1L260.6 304.5L262.8 296.9L256.6 292.1L264.5 291.8L267.1 284.4Z" fill="#E8C431"/>
<defs>
<radialGradient id="paint0_radial_227_952" cx="0" cy="0" r="1" gradientUnits="userSpaceOnUse" gradientTransform="translate(226.29 338.417) scale(94.2111 34.9379)">
<stop stop-color="#1D1D1B" stop-opacity="0.7"/>
<stop offset="0.1197" stop-color="#464645" stop-opacity="0.7359"/>
<stop offset="0.2688" stop-color="#737372" stop-opacity="0.7807"/>
<stop offset="0.4191" stop-color="#989898" stop-opacity="0.8257"/>
<stop offset="0.5681" stop-color="#B5B5B5" stop-opacity="0.8704"/>
<stop offset="0.7154" stop-color="#CACAC9" stop-opacity="0.9146"/>
<stop offset="0.8603" stop-color="#D6D6D6" stop-opacity="0.9581"/>
<stop offset="1" stop-color="#DADADA"/>
</radialGradient>
<radialGradient id="paint1_radial_227_952" cx="0" cy="0" r="1" gradientUnits="userSpaceOnUse" gradientTransform="translate(227.096 171.461) scale(170.161)">
<stop stop-color="#FB7677"/>
<stop offset="0.2959" stop-color="#FA7474"/>
<stop offset="0.4739" stop-color="#F66B6C"/>
<stop offset="0.6206" stop-color="#F05E5E"/>
<stop offset="0.7504" stop-color="#E74A4A"/>
<stop offset="0.8689" stop-color="#DB312F"/>
<stop offset="0.9778" stop-color="#CC120F"/>
<stop offset="1" stop-color="#C90B08"/>
</radialGradient>
<linearGradient id="paint2_linear_227_952" x1="2.5005" y1="241.25" x2="388.256" y2="241.25" gradientUnits="userSpaceOnUse">
<stop stop-color="#F9F0B9"/>
<stop offset="0.1348" stop-color="#F8EDB0"/>
<stop offset="0.3546" stop-color="#F5E598"/>
<stop offset="0.632" stop-color="#F0D870"/>
<stop offset="0.9534" stop-color="#E9C73A"/>
<stop offset="1" stop-color="#E8C431"/>
</linearGradient>
<linearGradient id="paint3_linear_227_952" x1="1.9438" y1="240.89" x2="387.978" y2="240.89" gradientUnits="userSpaceOnUse">
<stop stop-color="#F9F0B9"/>
<stop offset="0.020959" stop-color="#F8EDB0"/>
<stop offset="0.1656" stop-color="#F1DC7A"/>
<stop offset="0.2904" stop-color="#ECCF52"/>
<stop offset="0.3894" stop-color="#E9C73A"/>
<stop offset="0.45" stop-color="#E8C431"/>
<stop offset="0.7389" stop-color="#F9F0B9"/>
<stop offset="0.8113" stop-color="#F9EFB6"/>
<stop offset="0.8548" stop-color="#F8ECAE"/>
<stop offset="0.8907" stop-color="#F6E8A0"/>
<stop offset="0.9224" stop-color="#F3E18C"/>
<stop offset="0.9514" stop-color="#F0D971"/>
<stop offset="0.9781" stop-color="#ECCF51"/>
<stop offset="1" stop-color="#E8C431"/>
</linearGradient>
<linearGradient id="paint4_linear_227_952" x1="227.822" y1="59.9812" x2="227.822" y2="87.6281" gradientUnits="userSpaceOnUse">
<stop stop-color="#F9F0B9"/>
<stop offset="0.5" stop-color="#E8C431"/>
<stop offset="1" stop-color="#F9F0B9"/>
</linearGradient>
<linearGradient id="paint5_linear_227_952" x1="227.821" y1="59.9811" x2="227.821" y2="87.628" gradientUnits="userSpaceOnUse">
<stop stop-color="#F9F0B9"/>
<stop offset="0.5" stop-color="#E8C431"/>
<stop offset="1" stop-color="#F9F0B9"/>
</linearGradient>
<linearGradient id="paint6_linear_227_952" x1="227.821" y1="59.9811" x2="227.821" y2="87.628" gradientUnits="userSpaceOnUse">
<stop stop-color="#F9F0B9"/>
<stop offset="0.5" stop-color="#E8C431"/>
<stop offset="1" stop-color="#F9F0B9"/>
</linearGradient>
<linearGradient id="paint7_linear_227_952" x1="227.821" y1="59.9811" x2="227.821" y2="87.628" gradientUnits="userSpaceOnUse">
<stop stop-color="#F9F0B9"/>
<stop offset="0.5" stop-color="#E8C431"/>
<stop offset="1" stop-color="#F9F0B9"/>
</linearGradient>
<linearGradient id="paint8_linear_227_952" x1="220.363" y1="111.943" x2="220.363" y2="178.516" gradientUnits="userSpaceOnUse">
<stop stop-color="#F9F0B9"/>
<stop offset="0.5" stop-color="#E8C431"/>
<stop offset="1" stop-color="#F9F0B9"/>
</linearGradient>
<linearGradient id="paint9_linear_227_952" x1="220.362" y1="111.943" x2="220.362" y2="178.516" gradientUnits="userSpaceOnUse">
<stop stop-color="#F9F0B9"/>
<stop offset="0.5" stop-color="#E8C431"/>
<stop offset="1" stop-color="#F9F0B9"/>
</linearGradient>
<linearGradient id="paint10_linear_227_952" x1="220.362" y1="111.943" x2="220.362" y2="178.516" gradientUnits="userSpaceOnUse">
<stop stop-color="#F9F0B9"/>
<stop offset="0.5" stop-color="#E8C431"/>
<stop offset="1" stop-color="#F9F0B9"/>
</linearGradient>
<linearGradient id="paint11_linear_227_952" x1="220.362" y1="111.943" x2="220.362" y2="178.516" gradientUnits="userSpaceOnUse">
<stop stop-color="#F9F0B9"/>
<stop offset="0.5" stop-color="#E8C431"/>
<stop offset="1" stop-color="#F9F0B9"/>
</linearGradient>
<linearGradient id="paint12_linear_227_952" x1="220.362" y1="111.943" x2="220.362" y2="178.516" gradientUnits="userSpaceOnUse">
<stop stop-color="#F9F0B9"/>
<stop offset="0.5" stop-color="#E8C431"/>
<stop offset="1" stop-color="#F9F0B9"/>
</linearGradient>
<linearGradient id="paint13_linear_227_952" x1="220.363" y1="111.943" x2="220.363" y2="178.516" gradientUnits="userSpaceOnUse">
<stop stop-color="#F9F0B9"/>
<stop offset="0.5" stop-color="#E8C431"/>
<stop offset="1" stop-color="#F9F0B9"/>
</linearGradient>
<linearGradient id="paint14_linear_227_952" x1="220.363" y1="111.943" x2="220.363" y2="178.516" gradientUnits="userSpaceOnUse">
<stop stop-color="#F9F0B9"/>
<stop offset="0.5" stop-color="#E8C431"/>
<stop offset="1" stop-color="#F9F0B9"/>
</linearGradient>
</defs>
</svg>
