<svg width="412" height="351" viewBox="0 0 412 351" fill="none" xmlns="http://www.w3.org/2000/svg">
<path d="M233.7 350.3C307.043 350.3 366.5 348.509 366.5 346.3C366.5 344.091 307.043 342.3 233.7 342.3C160.357 342.3 100.9 344.091 100.9 346.3C100.9 348.509 160.357 350.3 233.7 350.3Z" fill="url(#paint0_radial_227_922)"/>
<path d="M391 283.3C391 283.3 394.6 289.7 330.8 282.8H194.2L127.8 283.5C127.8 283.5 16.9 291.4 5.5 300.9L48.5 260.8L0.5 239.4C0.5 239.4 32 229.9 56.7 230.6C81.4 231.3 181.9 233.4 181.9 233.4L256.1 230.5L329.4 237.4L381.3 250.4L387.2 265.6L389.6 274.6L391 283.3Z" fill="#006633"/>
<path d="M411.1 174.9C411.1 181.7 395.2 187.5 394.4 194.1C393.6 200.8 407.6 210.2 406 216.7C404.4 223.3 387.6 225.1 385.2 231.3C382.8 237.6 394.2 250.1 391.1 256C388 262 371.2 259.7 367.4 265.2C363.6 270.7 371.6 285.6 367.2 290.6C362.7 295.6 347 289.4 342 293.9C337 298.3 341.3 314.7 335.7 318.5C330.2 322.3 316.4 312.5 310.5 315.7C304.6 318.8 304.8 335.7 298.5 338.1C292.3 340.5 281.2 327.7 274.7 329.3C268.2 330.9 264.4 347.3 257.7 348.1C251.1 348.9 243.5 333.8 236.7 333.8C229.9 333.8 222.3 348.9 215.7 348.1C209 347.3 205.1 330.8 198.7 329.3C192.1 327.7 181.1 340.5 174.9 338.1C168.6 335.7 168.8 318.8 162.9 315.7C156.9 312.6 143.2 322.3 137.7 318.5C132.2 314.7 136.4 298.3 131.4 293.9C126.4 289.4 110.7 295.6 106.2 290.6C101.8 285.6 109.8 270.7 106 265.2C102.2 259.7 85.5 262 82.3 256C79.2 250.1 90.5 237.6 88.2 231.3C85.8 225.1 69 223.3 67.4 216.7C65.8 210.2 79.8 200.9 79 194.1C78.2 187.5 62.3 181.7 62.3 174.9C62.3 168.1 78.2 162.3 79 155.7C79.8 149 65.8 139.6 67.4 133.1C69 126.5 85.8 124.7 88.2 118.5C90.6 112.2 79.2 99.7 82.3 93.8C85.4 87.8 102.2 90.1 106 84.6C109.8 79.1 101.8 64.2 106.2 59.2C110.7 54.2 126.4 60.4 131.4 55.9C136.4 51.5 132.1 35.1 137.7 31.3C143.2 27.5 157 37.3 162.9 34.1C168.8 31 168.6 14.1 174.9 11.7C181.1 9.30001 192.2 22.1 198.7 20.5C205.2 18.9 209 2.50001 215.7 1.70001C222.3 0.900013 229.9 16 236.7 16C243.5 16 251.1 0.900013 257.7 1.70001C264.4 2.50001 268.3 19 274.7 20.5C281.3 22.1 292.3 9.30001 298.5 11.7C304.8 14.1 304.6 31 310.5 34.1C316.5 37.2 330.2 27.5 335.7 31.3C341.2 35.1 337 51.5 342 55.9C347 60.4 362.7 54.2 367.2 59.2C371.6 64.2 363.6 79.1 367.4 84.6C371.2 90.1 387.9 87.8 391.1 93.8C394.2 99.7 382.9 112.2 385.2 118.5C387.6 124.7 404.4 126.5 406 133.1C407.6 139.6 393.6 148.9 394.4 155.7C395.2 162.3 411.1 168.1 411.1 174.9Z" fill="#008D36"/>
<path d="M409.8 153.7C410.6 160.5 395.6 168.1 395.6 174.8C395.6 181.6 410.7 189.2 409.9 195.8C409.1 202.5 392.7 206.4 391.1 212.8C389.5 219.4 402.3 230.4 399.9 236.6C397.5 242.9 380.6 242.7 377.5 248.6C374.4 254.6 384.2 268.3 380.4 273.8C376.6 279.3 360.2 275.1 355.8 280.1C351.4 285.1 357.6 300.8 352.6 305.3C347.6 309.8 332.7 301.7 327.2 305.6C321.7 309.4 324 326.1 318 329.3C312.1 332.4 299.6 321.1 293.3 323.5C287.1 325.9 285.3 342.7 278.7 344.3C272.3 345.9 262.8 331.9 256.1 332.7C249.4 333.5 243.6 349.4 237 349.4C230.2 349.4 224.4 333.6 217.8 332.8C211.1 332 201.7 346 195.2 344.4C188.6 342.8 186.8 326 180.6 323.6C174.3 321.2 161.8 332.6 155.9 329.5C149.9 326.4 152.2 309.6 146.7 305.8C141.2 302 126.3 310.1 121.3 305.6C116.3 301.2 122.4 285.4 118 280.4C113.5 275.4 97.2 279.7 93.4 274.2C89.6 268.7 99.3 254.9 96.2 249C93.1 243.1 76.2 243.3 73.8 237C71.4 230.8 84.2 219.8 82.6 213.2C81 206.8 64.6 203 63.7 196.2C62.9 189.4 77.9 181.8 77.9 175.1C77.9 168.3 62.8 160.7 63.6 154.1C64.4 147.4 80.8 143.5 82.4 137.1C84 130.5 71.2 119.5 73.6 113.3C76 107 92.9 107.2 96 101.3C99.1 95.3 89.3 81.6 93.1 76.1C96.9 70.6 113.3 74.8 117.7 69.8C122.1 64.8 115.9 49.1 120.9 44.6C125.9 40.1 140.8 48.2 146.3 44.3C151.8 40.5 149.5 23.8 155.5 20.6C161.4 17.5 173.9 28.8 180.2 26.4C186.4 24 188.2 7.19998 194.8 5.59998C201.2 3.99998 210.6 18 217.4 17.2C224.2 16.4 229.9 0.5 236.5 0.5C243.3 0.5 249.1 16.3 255.7 17.1C262.4 17.9 271.8 3.9 278.3 5.5C284.9 7.1 286.7 23.9 292.9 26.3C299.2 28.7 311.7 17.3 317.6 20.4C323.6 23.5 321.3 40.3 326.8 44.1C332.3 47.9 347.2 39.8 352.2 44.3C357.2 48.7 351.1 64.5 355.5 69.5C360 74.5 376.3 70.2 380.1 75.7C383.9 81.2 374.2 95 377.3 100.9C380.4 106.8 397.3 106.5 399.7 112.9C402.1 119.1 389.3 130.1 390.9 136.7C392.5 143.1 409 146.9 409.8 153.7Z" fill="url(#paint1_radial_227_922)"/>
<path d="M236.7 297.1L239.3 304.3L246.8 304.5L240.9 309.2L243 316.4L236.7 312.2L230.4 316.4L232.5 309.2L226.6 304.5L234.1 304.3L236.7 297.1Z" fill="#006633"/>
<path d="M207.1 292.6L209.7 299.8L217.3 300L211.3 304.7L213.4 311.9L207.1 307.7L200.9 311.9L203 304.7L197 300L204.5 299.8L207.1 292.6Z" fill="#006633"/>
<path d="M266.9 292.6L269.5 299.8L277.1 300L271.1 304.7L273.2 311.9L266.9 307.7L260.7 311.9L262.8 304.7L256.8 300L264.4 299.8L266.9 292.6Z" fill="#006633"/>
<path d="M73.8 213.2L107.3 281.2C107.3 281.2 149.4 281.9 167.4 281.2C167.4 281.2 230.2 278.3 256.8 275.2C256.8 275.2 341.6 264.6 361.7 273.6L393.5 212.9C393.5 212.9 364.3 198.5 282.2 205.4C282.2 205.4 237.7 211.7 183.2 213.8C183.3 213.7 110.4 214.2 73.8 213.2Z" fill="#1D1D1B"/>
<path d="M397 220.8C397 220.8 398.5 223.5 391.1 283.2C391.1 283.2 390 275.2 364.3 270.9C364.3 270.9 345.6 266.9 331.2 266.4C331.2 266.4 309.9 266 296 266.9C296 266.9 284.2 268.1 266.3 269.7C266.3 269.7 257.9 270.3 239.2 272.4C239.2 272.4 223.8 274.5 204.4 275.4C204.4 275.4 195.8 276 167.7 277.2C167.7 277.2 132.6 277.9 124 277.5C124 277.5 26.7 277.3 2.70001 268.1L48.2 243.9C48.2 243.9 7.40001 208.9 5.20001 206C5.20001 206 25.1 215.5 102 216.1C102 216.1 130.5 218 179.1 216.1C179.1 216.1 234.8 213.9 267.3 209.1C267.3 209.1 310.9 205.3 330.2 205.9C330.2 206.1 373.9 205.2 397 220.8Z" fill="url(#paint2_linear_227_922)"/>
<path d="M211.517 97.2755V69.0599H221.382C223.347 69.0599 224.968 69.3998 226.245 70.0794C227.522 70.7499 228.472 71.6546 229.097 72.7935C229.722 73.9232 230.034 75.177 230.034 76.5547C230.034 77.7671 229.818 78.7682 229.386 79.5581C228.964 80.348 228.404 80.9726 227.705 81.4318C227.017 81.891 226.268 82.2309 225.46 82.4513V82.7268C226.323 82.782 227.191 83.085 228.064 83.6361C228.936 84.1872 229.666 84.9771 230.254 86.0058C230.842 87.0345 231.136 88.2928 231.136 89.7807C231.136 91.1952 230.815 92.4673 230.172 93.597C229.529 94.7267 228.514 95.6223 227.127 96.2836C225.74 96.9449 223.935 97.2755 221.712 97.2755H211.517ZM214.934 94.2445H221.712C223.944 94.2445 225.529 93.8129 226.466 92.9495C227.412 92.0769 227.885 91.0207 227.885 89.7807C227.885 88.8255 227.641 87.9438 227.154 87.1355C226.668 86.3181 225.974 85.666 225.074 85.1792C224.174 84.6832 223.108 84.4352 221.878 84.4352H214.934V94.2445ZM214.934 81.4593H221.272C222.3 81.4593 223.228 81.2573 224.055 80.8532C224.89 80.449 225.552 79.8796 226.038 79.1448C226.534 78.41 226.782 77.5466 226.782 76.5547C226.782 75.3147 226.351 74.2631 225.487 73.3997C224.624 72.5272 223.255 72.0909 221.382 72.0909H214.934V81.4593ZM236.75 97.2755V69.0599H253.779V72.0909H240.167V81.6247H252.897V84.6556H240.167V94.2445H253.999V97.2755H236.75ZM275.368 76.1138C275.202 74.7177 274.532 73.6339 273.356 72.8624C272.18 72.0909 270.738 71.7051 269.03 71.7051C267.781 71.7051 266.688 71.9072 265.751 72.3113C264.823 72.7154 264.098 73.2711 263.574 73.9784C263.06 74.6856 262.803 75.4892 262.803 76.3894C262.803 77.1425 262.982 77.79 263.34 78.3319C263.707 78.8647 264.176 79.3101 264.745 79.6683C265.315 80.0173 265.912 80.3067 266.536 80.5363C267.161 80.7567 267.735 80.9358 268.259 81.0736L271.124 81.8451C271.859 82.038 272.676 82.3043 273.576 82.6442C274.486 82.984 275.354 83.4478 276.18 84.0357C277.016 84.6143 277.705 85.3583 278.247 86.2676C278.789 87.1769 279.06 88.2928 279.06 89.6154C279.06 91.1401 278.66 92.5178 277.861 93.7486C277.071 94.9793 275.914 95.9575 274.389 96.6831C272.874 97.4087 271.032 97.7715 268.865 97.7715C266.844 97.7715 265.094 97.4454 263.616 96.7933C262.146 96.1412 260.989 95.2319 260.144 94.0654C259.308 92.899 258.835 91.5442 258.725 90.0012H262.252C262.344 91.0666 262.702 91.9483 263.326 92.6464C263.96 93.3352 264.759 93.8496 265.724 94.1894C266.697 94.5201 267.744 94.6854 268.865 94.6854C270.169 94.6854 271.34 94.4742 272.378 94.0517C273.416 93.62 274.238 93.023 274.844 92.2606C275.45 91.4891 275.753 90.589 275.753 89.5603C275.753 88.6235 275.492 87.8611 274.968 87.2733C274.444 86.6855 273.756 86.2079 272.901 85.8405C272.047 85.4731 271.124 85.1516 270.132 84.8761L266.66 83.8841C264.456 83.2504 262.711 82.3457 261.425 81.17C260.139 79.9944 259.496 78.4559 259.496 76.5547C259.496 74.9749 259.923 73.5972 260.778 72.4215C261.641 71.2367 262.798 70.3182 264.249 69.6661C265.71 69.0048 267.34 68.6742 269.14 68.6742C270.959 68.6742 272.575 69.0002 273.99 69.6523C275.404 70.2953 276.525 71.177 277.351 72.2975C278.187 73.4181 278.628 74.6902 278.674 76.1138H275.368ZM283.134 72.0909V69.0599H304.296V72.0909H295.424V97.2755H292.007V72.0909H283.134Z" fill="#006633"/>
<path d="M169.698 179.546V186.196H158.909C156.308 186.196 154.476 185.992 153.413 185.585C152.35 185.201 151.626 184.613 151.242 183.821C150.88 183.03 150.699 181.605 150.699 179.546C147.465 179.456 144.683 178.608 142.353 177.002C140.023 175.396 138.485 173.36 137.739 170.895C136.993 168.407 136.62 164.698 136.62 159.767V142.77C136.62 139.038 136.834 136.2 137.264 134.254C137.716 132.287 138.633 130.443 140.012 128.724C141.392 126.983 143.167 125.671 145.339 124.789C147.51 123.907 149.919 123.466 152.565 123.466C155.754 123.466 158.593 124.009 161.081 125.094C163.591 126.18 165.457 127.56 166.678 129.233C167.922 130.907 168.725 132.649 169.087 134.458C169.472 136.245 169.664 138.914 169.664 142.465V160.31C169.664 165.195 169.426 168.509 168.951 170.251C168.477 171.992 167.561 173.383 166.203 174.423C164.869 175.441 163.082 176.222 160.843 176.764C160.911 177.986 161.16 178.755 161.589 179.071C162.042 179.388 163.094 179.546 164.745 179.546H169.698ZM155.381 138.733C155.381 136.177 155.234 134.549 154.94 133.847C154.668 133.124 154.092 132.762 153.21 132.762C152.463 132.762 151.886 133.056 151.479 133.644C151.095 134.209 150.903 135.906 150.903 138.733V164.381C150.903 167.57 151.027 169.538 151.276 170.284C151.547 171.031 152.158 171.404 153.108 171.404C154.08 171.404 154.702 170.974 154.974 170.115C155.245 169.255 155.381 167.208 155.381 163.974V138.733ZM207.492 124.619V161.328C207.492 165.489 207.356 168.418 207.085 170.115C206.813 171.789 206.011 173.519 204.676 175.306C203.342 177.07 201.577 178.416 199.384 179.343C197.212 180.248 194.645 180.7 191.682 180.7C188.403 180.7 185.508 180.157 182.997 179.071C180.487 177.986 178.609 176.572 177.365 174.831C176.121 173.089 175.386 171.257 175.16 169.335C174.934 167.389 174.821 163.318 174.821 157.121V124.619H189.104V165.806C189.104 168.204 189.228 169.742 189.477 170.42C189.748 171.076 190.28 171.404 191.072 171.404C191.976 171.404 192.553 171.042 192.802 170.318C193.073 169.572 193.209 167.83 193.209 165.094V124.619H207.492ZM237.687 124.619L245.863 179.546H231.241L230.528 169.674H225.405L224.557 179.546H209.765L217.025 124.619H237.687ZM230.121 159.937C229.397 153.717 228.673 146.038 227.95 136.901C226.502 147.395 225.597 155.074 225.236 159.937H230.121ZM262.589 124.619V168.554H271.274V179.546H248.306V124.619H262.589ZM289.051 124.619V179.546H274.768V124.619H289.051ZM323.555 124.619V135.612H315.073V179.546H300.79V135.612H292.342V124.619H323.555ZM359.008 124.619L348.592 159.665V179.546H335.361V159.665L325.319 124.619H338.448C340.507 135.318 341.66 142.521 341.909 146.231C342.701 140.373 344.024 133.169 345.878 124.619H359.008Z" fill="#006633"/>
<defs>
<radialGradient id="paint0_radial_227_922" cx="0" cy="0" r="1" gradientUnits="userSpaceOnUse" gradientTransform="translate(233.7 346.27) scale(94.2111 34.9379)">
<stop stop-color="#1D1D1B" stop-opacity="0.7"/>
<stop offset="0.1197" stop-color="#464645" stop-opacity="0.7359"/>
<stop offset="0.2688" stop-color="#737372" stop-opacity="0.7807"/>
<stop offset="0.4191" stop-color="#989898" stop-opacity="0.8257"/>
<stop offset="0.5681" stop-color="#B5B5B5" stop-opacity="0.8704"/>
<stop offset="0.7154" stop-color="#CACAC9" stop-opacity="0.9146"/>
<stop offset="0.8603" stop-color="#D6D6D6" stop-opacity="0.9581"/>
<stop offset="1" stop-color="#DADADA"/>
</radialGradient>
<radialGradient id="paint1_radial_227_922" cx="0" cy="0" r="1" gradientUnits="userSpaceOnUse" gradientTransform="translate(236.695 174.929) scale(173.842 173.842)">
<stop offset="0.5" stop-color="#F5F0EB"/>
<stop offset="0.8107" stop-color="#F3EEEA"/>
<stop offset="0.9225" stop-color="#ECE9E5"/>
<stop offset="1" stop-color="#E1E0DD"/>
</radialGradient>
<linearGradient id="paint2_linear_227_922" x1="2.58151" y1="244.64" x2="397.075" y2="244.64" gradientUnits="userSpaceOnUse">
<stop stop-color="#3AAA35"/>
<stop offset="0.0056515" stop-color="#38A835"/>
<stop offset="0.1063" stop-color="#208B34"/>
<stop offset="0.2064" stop-color="#0E7733"/>
<stop offset="0.3049" stop-color="#046A33"/>
<stop offset="0.4" stop-color="#006633"/>
<stop offset="0.5297" stop-color="#107834"/>
<stop offset="0.7902" stop-color="#38A835"/>
<stop offset="0.8" stop-color="#3AAA35"/>
<stop offset="0.8693" stop-color="#38A735"/>
<stop offset="0.911" stop-color="#319F35"/>
<stop offset="0.9453" stop-color="#249134"/>
<stop offset="0.9755" stop-color="#137D34"/>
<stop offset="1" stop-color="#006633"/>
</linearGradient>
</defs>
</svg>
